<?xml version="1.0"?>
<svg version="1.1" xmlns="http://www.w3.org/2000/svg" width="197" height="73" style=""><path fill="#a60037" d="M16.20849609375,58.49462890625q0-0.1318359375,0.087890625-0.933837890625t0.230712890625-1.95556640625t0.318603515625-2.48291015625t0.3076171875-2.515869140625t0.230712890625-2.08740234375t0.098876953125-1.20849609375q-0.17578125-0.087890625-0.428466796875-0.252685546875t-0.252685546875-0.384521484375q0-0.3076171875,0.296630859375-0.494384765625t0.516357421875-0.274658203125q0.087890625-1.12060546875,0.2197265625-3.1201171875t0.406494140625-4.317626953125t0.76904296875-4.7021484375t1.307373046875-4.32861328125t1.95556640625-3.175048828125t2.8125-1.23046875t2.7685546875,1.0546875t1.790771484375,2.74658203125t1.0546875,3.75732421875t0.54931640625,4.10888671875t0.230712890625,3.8232421875t0.087890625,2.8564453125q0.0439453125,0.68115234375,0.32958984375,0.911865234375t0.626220703125,0.318603515625t0.615234375,0.19775390625t0.274658203125,0.54931640625q0,0.50537109375-0.615234375,0.703125t-0.966796875,0.24169921875q0.2197265625,2.74658203125,0.604248046875,5.4052734375t1.021728515625,5.361328125q0.087890625,0.50537109375,0.24169921875,1.021728515625t0.15380859375,0.999755859375q0,0.3515625-0.24169921875,0.582275390625t-0.626220703125,0.362548828125t-0.76904296875,0.17578125t-0.648193359375,0.0439453125q-0.98876953125,0-1.669921875-0.37353515625t-0.90087890625-1.42822265625q-0.59326171875-2.83447265625-1.16455078125-5.95458984375q-0.4833984375-2.70263671875-0.4833984375-5.25146484375q0-0.3955078125,0.02197265625-0.791015625q-1.845703125,0-3.71337890625,0.087890625t-3.58154296875,0.6591796875q-0.0439453125,0.59326171875-0.2197265625,2.2412109375t-0.3955078125,3.53759765625t-0.450439453125,3.614501953125t-0.274658203125,2.449951171875q-0.0439453125,0.3076171875-0.450439453125,0.582275390625t-0.87890625,0.296630859375t-0.8349609375-0.296630859375t-0.362548828125-1.131591796875z M20.3173828125,45.17919921875q1.7138671875-0.3955078125,3.438720703125-0.46142578125t3.482666015625-0.15380859375q-0.087890625-0.54931640625-0.0439453125-1.131591796875t0.0439453125-1.175537109375q0-1.29638671875-0.06591796875-3.01025390625t-0.19775390625-3.4716796875t-0.340576171875-3.460693359375t-0.472412109375-3.0322265625t-0.560302734375-2.120361328125t-0.648193359375-0.791015625q-0.68115234375,0.0439453125-1.285400390625,1.175537109375t-1.0986328125,2.87841796875t-0.90087890625,3.9111328125t-0.68115234375,4.229736328125t-0.450439453125,3.84521484375t-0.2197265625,2.7685546875z M38.404614257813,45.300048828125q-0.054931640625-0.736083984375,0.087890625-1.351318359375t0.5712890625-0.999755859375t1.373291015625-0.384521484375q0.2197265625,0,0.538330078125,0.054931640625t0.626220703125,0.142822265625t0.516357421875,0.263671875t0.208740234375,0.4833984375l0,2.48291015625q0.85693359375-0.98876953125,1.86767578125-1.417236328125t2.30712890625-0.428466796875q0.98876953125,0,1.95556640625,0.450439453125t1.82373046875,1.197509765625t1.483154296875,1.64794921875t0.911865234375,1.8017578125q0.17578125-0.81298828125,0.3955078125-1.988525390625t0.648193359375-2.252197265625t1.131591796875-1.845703125t1.86767578125-0.76904296875q1.25244140625,0,2.109375,0.90087890625t1.395263671875,2.340087890625t0.81298828125,3.218994140625t0.406494140625,3.515625t0.1318359375,3.240966796875l0,2.362060546875q0,0.263671875-0.19775390625,0.428466796875t-0.494384765625,0.252685546875t-0.615234375,0.10986328125t-0.494384765625,0.02197265625q-0.68115234375,0-1.241455078125-0.208740234375t-0.560302734375-1.065673828125l0-1.9775390625t-0.0439453125-2.559814453125t-0.15380859375-2.74658203125t-0.28564453125-2.493896484375t-0.450439453125-1.8017578125t-0.670166015625-0.703125q-0.54931640625,0-0.791015625,0.615234375t-0.406494140625,1.56005859375t-0.252685546875,1.99951171875t-0.24169921875,1.99951171875t-0.494384765625,1.549072265625t-0.933837890625,0.604248046875q-0.63720703125,0-1.12060546875-0.604248046875t-0.955810546875-1.505126953125t-0.94482421875-1.93359375t-1.043701171875-1.93359375q-0.5712890625-0.9228515625-1.23046875-1.494140625q-0.59326171875-0.54931640625-1.34033203125-0.52734375l-0.10986328125,0q-0.98876953125,0.0439453125-1.549072265625,0.714111328125t-0.85693359375,1.636962890625t-0.362548828125,2.076416015625t-0.06591796875,1.944580078125q0,0.791015625,0.1318359375,1.845703125q0.087890625,0.703125,0.087890625,1.34033203125q0,0.32958984375-0.02197265625,0.63720703125q-0.06591796875,0.9228515625-0.494384765625,1.549072265625t-1.593017578125,0.626220703125q-0.439453125,0-1.0986328125-0.087890625t-0.87890625-0.59326171875q-0.50537109375-0.90087890625-0.76904296875-2.274169921875t-0.3955078125-2.83447265625t-0.15380859375-2.900390625t-0.02197265625-2.471923828125q0-0.72509765625-0.054931640625-1.461181640625z M66.115869140625,45.904296875q0-0.63720703125,0.362548828125-0.8349609375t0.911865234375-0.19775390625q0.90087890625,0,1.373291015625,0.340576171875t0.472412109375,1.197509765625q0,1.03271484375,0.15380859375,2.581787109375t0.450439453125,3.01025390625t0.703125,2.515869140625t0.845947265625,1.0546875q0.81298828125,0,1.439208984375-1.25244140625t1.0986328125-3.076171875t0.81298828125-3.922119140625t0.472412109375-3.746337890625q0.087890625-0.90087890625,0.428466796875-1.307373046875t1.241455078125-0.406494140625q1.03271484375,0,1.505126953125,0.85693359375t0.604248046875,2.109375q0.10986328125,1.07666015625,0.10986328125,2.2412109375l0,0.37353515625l0,0.87890625q0,0.8349609375,0.02197265625,1.494140625l0.63720703125,13.46923828125l0.087890625,2.2412109375q0.0439453125,0.3076171875,0.06591796875,0.582275390625t0.02197265625,0.582275390625q0,1.25244140625-0.538330078125,1.614990234375t-1.746826171875,0.362548828125q-0.263671875,0-0.670166015625-0.0439453125t-0.791015625-0.17578125t-0.6591796875-0.362548828125t-0.274658203125-0.582275390625l0.087890625-0.2197265625q0.10986328125-1.318359375,0.10986328125-2.7685546875l0-0.46142578125q-0.02197265625-1.7138671875-0.10986328125-3.4716796875t-0.19775390625-3.515625t-0.10986328125-3.3837890625q-0.3076171875,0.68115234375-0.714111328125,1.40625t-0.94482421875,1.307373046875t-1.219482421875,0.966796875t-1.5380859375,0.384521484375q-1.25244140625,0-2.0654296875-0.6591796875t-1.263427734375-1.7138671875t-0.648193359375-2.362060546875t-0.263671875-2.61474609375t-0.087890625-2.493896484375t-0.17578125-1.99951171875z M84.433813476563,44.65185546875q0-0.90087890625,0.318603515625-1.51611328125t1.351318359375-0.615234375q0.3955078125,0,0.98876953125,0.120849609375t0.68115234375,0.604248046875q0.2197265625,1.29638671875,0.24169921875,2.8125t0.15380859375,2.8564453125q0.50537109375-0.98876953125,1.29638671875-2.13134765625t1.8017578125-2.109375t2.197265625-1.60400390625t2.4169921875-0.63720703125q0.087890625,0,0.32958984375,0.06591796875t0.450439453125,0.186767578125t0.252685546875,0.274658203125t-0.24169921875,0.28564453125q-0.087890625,0.263671875-0.37353515625,0.318603515625t-0.50537109375,0.054931640625q-0.1318359375,0-0.41748046875-0.10986328125q-1.6259765625,0.85693359375-2.7685546875,2.3291015625t-1.86767578125,3.262939453125t-1.0546875,3.779296875t-0.32958984375,3.878173828125q0,0.94482421875-0.428466796875,1.142578125t-1.373291015625,0.19775390625q-0.50537109375,0-1.065673828125-0.10986328125t-0.780029296875-0.703125q-0.3955078125-1.25244140625-0.648193359375-2.87841796875t-0.384521484375-3.350830078125t-0.186767578125-3.394775390625t-0.054931640625-3.01025390625z M99.60966796875,51.2216796875q0-1.25244140625,0.318603515625-2.581787109375t1.0107421875-2.39501953125t1.746826171875-1.73583984375t2.548828125-0.670166015625q1.12060546875,0,2.362060546875,0.384521484375t2.274169921875,1.0986328125t1.680908203125,1.746826171875t0.648193359375,2.30712890625q0,1.5380859375-0.560302734375,2.92236328125t-1.571044921875,2.471923828125t-2.362060546875,1.7138671875t-2.933349609375,0.626220703125q-1.29638671875,0-2.26318359375-0.472412109375t-1.614990234375-1.263427734375t-0.966796875-1.86767578125t-0.318603515625-2.28515625z M102.8396484375,51.177734375q0,0.3955078125,0.120849609375,1.16455078125t0.362548828125,1.505126953125t0.626220703125,1.2744140625t0.933837890625,0.494384765625q1.16455078125-0.1318359375,1.922607421875-0.758056640625t1.23046875-1.527099609375t0.6591796875-1.95556640625t0.186767578125-1.99951171875q0-1.20849609375-0.472412109375-2.021484375t-1.549072265625-1.318359375q0,0.0439453125,0.0439453125,0.0439453125t0.0439453125-0.0439453125l-0.54931640625-0.1318359375q-0.2197265625-0.087890625-0.538330078125-0.19775390625t-0.626220703125-0.4833984375q-0.85693359375,0.3076171875-1.329345703125,0.791015625t-0.714111328125,1.175537109375t-0.296630859375,1.658935546875t-0.054931640625,2.3291015625z M116.25769042969,45.13525390625q0-0.90087890625,0.52734375-1.549072265625t1.285400390625-1.0546875t1.658935546875-0.604248046875t1.669921875-0.19775390625q0.59326171875,0,1.58203125,0.17578125t1.93359375,0.52734375t1.636962890625,0.9228515625t0.692138671875,1.34033203125q0,0.3515625-0.263671875,0.626220703125t-0.54931640625,0.274658203125q-0.59326171875,0-1.07666015625-0.384521484375t-0.999755859375-0.81298828125t-1.131591796875-0.81298828125t-1.38427734375-0.384521484375t-1.395263671875,0.494384765625t-0.626220703125,1.307373046875q0,1.34033203125,0.94482421875,2.625732421875t2.076416015625,2.70263671875t2.076416015625,2.977294921875t0.94482421875,3.44970703125q0,0.81298828125-0.340576171875,1.373291015625t-0.90087890625,0.911865234375t-1.263427734375,0.538330078125t-1.3623046875,0.186767578125q-0.72509765625,0-1.69189453125-0.340576171875t-1.82373046875-0.90087890625t-1.439208984375-1.307373046875t-0.582275390625-1.56005859375q0-0.3955078125,0.560302734375-0.50537109375t0.823974609375-0.10986328125q0.1318359375,0,0.406494140625,0.087890625t0.538330078125,0.19775390625t0.472412109375,0.24169921875t0.164794921875,0.28564453125q0.2197265625,0.263671875,0.670166015625,0.780029296875t0.90087890625,0.8349609375t0.791015625,0.230712890625t0.340576171875-0.98876953125q0-1.7138671875-0.9228515625-3.153076171875t-2.010498046875-2.8125t-2.010498046875-2.724609375t-0.9228515625-2.889404296875z M131.74116210937,51.705078125q0-1.5380859375,0.340576171875-3.62548828125t1.153564453125-3.955078125t2.142333984375-3.175048828125t3.350830078125-1.307373046875q1.8896484375,0,2.83447265625,1.087646484375t0.94482421875,2.933349609375q0,1.20849609375-0.450439453125,2.647705078125t-1.285400390625,2.724609375t-1.9775390625,2.142333984375t-2.548828125,0.85693359375l-0.5712890625-0.0439453125q0,0.59326171875,0.17578125,1.593017578125t0.516357421875,1.988525390625t0.87890625,1.73583984375t1.307373046875,0.7470703125q1.12060546875,0,2.1533203125-0.90087890625t1.95556640625-1.99951171875t1.7138671875-1.99951171875t1.4501953125-0.90087890625q0.3515625,0,0.72509765625,0.10986328125t0.41748046875,0.615234375q0,0.3076171875-0.164794921875,0.50537109375t-0.296630859375,0.439453125q-0.68115234375,1.16455078125-1.483154296875,2.21923828125t-1.812744140625,1.91162109375t-2.208251953125,1.351318359375t-2.647705078125,0.494384765625q-1.8896484375,0-3.14208984375-0.670166015625t-2.021484375-1.8017578125t-1.109619140625-2.61474609375t-0.340576171875-3.109130859375z M135.67426757812,50.03515625l0.615234375,0.54931640625q0.439453125,0.3955078125,0.87890625,0.17578125t0.791015625-0.802001953125t0.648193359375-1.439208984375t0.52734375-1.7578125t0.340576171875-1.7578125t0.10986328125-1.42822265625l0-0.7470703125t-0.06591796875-0.791015625t-0.230712890625-0.626220703125t-0.516357421875-0.318603515625q-0.10986328125-0.02197265625-0.19775390625-0.02197265625q-0.7470703125,0-1.2744140625,0.94482421875q-0.5712890625,1.0546875-0.9228515625,2.559814453125t-0.50537109375,3.087158203125t-0.19775390625,2.373046875z M150.10305175781,50.27685546875q0-2.021484375,0.472412109375-3.966064453125t0.802001953125-3.878173828125q0.087890625-0.50537109375,0.692138671875-0.626220703125t1.021728515625-0.120849609375q0.72509765625,0,1.16455078125,0.2197265625q0.17578125,0.087890625,0.32958984375,0.19775390625t0.15380859375,0.28564453125q0,1.8896484375-0.450439453125,3.69140625t-0.450439453125,3.8232421875q0,0.68115234375,0.098876953125,1.285400390625t0.186767578125,1.197509765625l0.1318359375,0.63720703125q0,0.17578125,0.02197265625,0.3076171875t0.06591796875,0.3076171875q0,0.3955078125-0.560302734375,0.538330078125t-0.977783203125,0.142822265625q-0.63720703125,0-1.175537109375-0.252685546875t-0.845947265625-0.867919921875l-0.3076171875-0.63720703125q-0.263671875-0.50537109375-0.263671875-1.131591796875t-0.10986328125-1.153564453125z M151.50930175781,37.04931640625l0-0.41748046875q0-1.03271484375,0.516357421875-1.845703125t1.549072265625-0.81298828125q0.1318359375,0,0.252685546875,0.02197265625t0.252685546875,0.02197265625q0.263671875,0.0439453125,0.692138671875,0.208740234375t0.428466796875,0.516357421875l0,0.0439453125q-0.087890625,0.17578125-0.10986328125,0.362548828125t-0.10986328125,0.318603515625l0.0439453125-0.0439453125q-0.263671875,0.68115234375-0.428466796875,1.0986328125t-0.362548828125,0.670166015625t-0.494384765625,0.362548828125t-0.845947265625,0.10986328125q-0.087890625,0-0.3076171875-0.02197265625t-0.472412109375-0.087890625t-0.428466796875-0.17578125t-0.17578125-0.32958984375z M159.71982421875,50.9140625l0-0.63720703125q0-0.791015625,0.0439453125-1.494140625q0.0439453125-0.98876953125,0.0439453125-1.6259765625q0-0.3515625,0.0439453125-0.802001953125t0.2197265625-0.714111328125q0.2197265625-0.2197265625,0.516357421875-0.450439453125t0.648193359375-0.230712890625q1.12060546875,0,1.7578125,0.252685546875t0.68115234375,1.043701171875l0.087890625,0.68115234375q0.3955078125-0.94482421875,1.0546875-2.340087890625t1.527099609375-2.65869140625t1.95556640625-2.1533203125t2.296142578125-0.889892578125q1.12060546875,0,1.845703125,1.0546875t1.153564453125,2.691650390625t0.604248046875,3.6474609375t0.24169921875,3.944091796875t0.087890625,3.526611328125t0.15380859375,2.406005859375q0.087890625,0.68115234375,0.296630859375,1.439208984375t0.208740234375,1.395263671875q0,0.17578125-0.252685546875,0.340576171875t-0.538330078125,0.274658203125t-0.582275390625,0.17578125t-0.428466796875,0.06591796875q-0.85693359375,0-1.219482421875-1.285400390625t-0.450439453125-3.218994140625t-0.087890625-4.185791015625t-0.15380859375-4.185791015625t-0.626220703125-3.218994140625t-1.505126953125-1.329345703125q-0.94482421875,0-1.95556640625,1.219482421875t-1.73583984375,3.240966796875q-0.703125,2.021484375-0.966796875,4.59228515625q-0.087890625,0.81298828125-0.087890625,1.6259765625q0,1.77978515625,0.37353515625,3.5595703125q0.0439453125,0.3076171875-0.252685546875,0.46142578125t-0.736083984375,0.24169921875t-0.889892578125,0.10986328125t-0.692138671875,0.02197265625q-0.85693359375,0-1.373291015625-0.604248046875t-0.802001953125-1.549072265625t-0.384521484375-2.120361328125t-0.120849609375-2.318115234375z"/><path fill="#" d=""/></svg>
